<svg xmlns="http://www.w3.org/2000/svg" width="272.234" height="62.125" viewBox="0 0 272.234 62.125">
    <defs>
        <style>
            .cls-1{fill:#fff}
        </style>
    </defs>
    <g id="Group_374" data-name="Group 374" transform="translate(-394.131 -217.737)">
        <path id="Path_292" d="M1526.591 219.519a3.588 3.588 0 0 0-6.193-.013l-15.379 26.628a36.884 36.884 0 0 0 36.947.011z" class="cls-1" data-name="Path 292" transform="translate(-892.25)"/>
        <path id="Path_293" d="M1633.678 402.189a3.563 3.563 0 0 0 3.091-1.791 3.6 3.6 0 0 0 .02-3.574l-15.366-26.632a36.928 36.928 0 0 0-18.495 31.986z" class="cls-1" data-name="Path 293" transform="translate(-970.889 -122.45)"/>
        <path id="Path_294" d="M1422.861 401.949a3.692 3.692 0 0 1-3.1-1.883 3.6 3.6 0 0 1-.006-3.565l15.448-26.593a36.928 36.928 0 0 1 18.4 32.043z" class="cls-1" data-name="Path 294" transform="translate(-823.389 -122.222)"/>
        <path id="Path_295" d="M409.6 244.1a5.832 5.832 0 0 1-2.605 2.406 9.5 9.5 0 0 1-7.694-.161 8.155 8.155 0 0 1-2.885-2.424 11.047 11.047 0 0 1-1.709-3.521 14.7 14.7 0 0 1-.576-4.137 13.8 13.8 0 0 1 .576-4 10.45 10.45 0 0 1 1.709-3.4 8.589 8.589 0 0 1 2.846-2.366 8.45 8.45 0 0 1 3.978-.894 8.086 8.086 0 0 1 3.484.777 6.039 6.039 0 0 1 2.6 2.29h.068v-10.348h5.648v28.4h-5.363V244.1zm-.238-10.16a6.021 6.021 0 0 0-.815-2.067 4.574 4.574 0 0 0-1.493-1.451 4.365 4.365 0 0 0-2.307-.556 4.586 4.586 0 0 0-2.345.556 4.406 4.406 0 0 0-1.532 1.47 6.593 6.593 0 0 0-.835 2.086 11.485 11.485 0 0 0-.258 2.446 10.366 10.366 0 0 0 .28 2.385 6.437 6.437 0 0 0 .892 2.124 4.934 4.934 0 0 0 1.55 1.51 4.191 4.191 0 0 0 2.248.579 4.482 4.482 0 0 0 2.327-.556 4.212 4.212 0 0 0 1.492-1.49 6.748 6.748 0 0 0 .795-2.126 12.545 12.545 0 0 0 .238-2.464 12.253 12.253 0 0 0-.238-2.446" class="cls-1" data-name="Path 295" transform="translate(0 -.47)"/>
        <path id="Rectangle_1643" d="M0 0h5.647v4.65H0z" class="cls-1" data-name="Rectangle 1643" transform="translate(419.467 217.851)"/>
        <path id="Rectangle_1644" d="M0 0h5.648v20.554H0z" class="cls-1" data-name="Rectangle 1644" transform="translate(419.469 225.695)"/>
        <path id="Path_296" d="M580.313 255.866v2.784h.079a8.026 8.026 0 0 1 2.682-2.462 7.282 7.282 0 0 1 3.6-.872 8.285 8.285 0 0 1 3.559.753 5 5 0 0 1 2.444 2.658 8.77 8.77 0 0 1 2.486-2.38 6.609 6.609 0 0 1 3.718-1.031 10.9 10.9 0 0 1 3.022.4 6.083 6.083 0 0 1 2.384 1.272 5.853 5.853 0 0 1 1.552 2.287 9.329 9.329 0 0 1 .556 3.4v13.761h-5.65v-11.662c0-.689-.024-1.34-.079-1.949a4.143 4.143 0 0 0-.435-1.592 2.664 2.664 0 0 0-1.053-1.075 3.818 3.818 0 0 0-1.888-.4 3.588 3.588 0 0 0-1.93.459 3.314 3.314 0 0 0-1.152 1.192 4.805 4.805 0 0 0-.559 1.674 13.13 13.13 0 0 0-.137 1.888v11.46h-5.65v-11.54c0-.61-.013-1.214-.037-1.81a5.159 5.159 0 0 0-.34-1.651 2.536 2.536 0 0 0-.994-1.212 3.73 3.73 0 0 0-2.049-.459 4.264 4.264 0 0 0-1.053.181 3.485 3.485 0 0 0-1.27.675 3.917 3.917 0 0 0-1.055 1.433 5.817 5.817 0 0 0-.437 2.448v11.935h-5.65v-20.565z" class="cls-1" data-name="Path 296" transform="translate(-145.257 -30.183)"/>
        <path id="Path_297" d="M759.187 271.5a5.8 5.8 0 0 0 6.6.384 3.541 3.541 0 0 0 1.51-1.8h4.972a9.442 9.442 0 0 1-3.66 5.283 10.782 10.782 0 0 1-5.963 1.59 11.755 11.755 0 0 1-4.374-.777 9.062 9.062 0 0 1-3.3-2.21 9.9 9.9 0 0 1-2.089-3.42 12.587 12.587 0 0 1-.733-4.376 11.95 11.95 0 0 1 .755-4.294 9.936 9.936 0 0 1 5.467-5.727 10.643 10.643 0 0 1 4.276-.837 9.778 9.778 0 0 1 4.572 1.013 9.086 9.086 0 0 1 3.2 2.724 11.177 11.177 0 0 1 1.813 3.895 14.506 14.506 0 0 1 .4 4.57H757.8a5.705 5.705 0 0 0 1.391 3.983m6.383-10.814a3.977 3.977 0 0 0-3.082-1.108 4.924 4.924 0 0 0-2.245.455 4.288 4.288 0 0 0-1.435 1.13 4.166 4.166 0 0 0-.753 1.424 6.321 6.321 0 0 0-.258 1.346h9.182a6.47 6.47 0 0 0-1.409-3.248" class="cls-1" data-name="Path 297" transform="translate(-287.556 -30.181)"/>
        <path id="Path_298" d="M878.432 255.866v2.861h.119a6.489 6.489 0 0 1 2.786-2.6 8.055 8.055 0 0 1 3.5-.812 9.6 9.6 0 0 1 3.72.616 5.474 5.474 0 0 1 2.287 1.711 6.568 6.568 0 0 1 1.175 2.663 16.594 16.594 0 0 1 .338 3.479v12.648h-5.647v-11.62a7.193 7.193 0 0 0-.8-3.8 3.087 3.087 0 0 0-2.828-1.254 3.924 3.924 0 0 0-3.345 1.373 7.616 7.616 0 0 0-1.038 4.517v10.783h-5.648v-20.565z" class="cls-1" data-name="Path 298" transform="translate(-384.667 -30.183)"/>
        <path id="Path_299" d="M993.654 271.321a3.309 3.309 0 0 0 .972 1.071 4.145 4.145 0 0 0 1.366.614 6.549 6.549 0 0 0 1.605.2 6.168 6.168 0 0 0 1.25-.139 4.266 4.266 0 0 0 1.19-.44 2.7 2.7 0 0 0 .892-.795 2.106 2.106 0 0 0 .355-1.254q0-1.268-1.687-1.908a33.959 33.959 0 0 0-4.707-1.274c-.819-.185-1.623-.4-2.4-.654a8.253 8.253 0 0 1-2.086-1 4.871 4.871 0 0 1-1.468-1.55 4.406 4.406 0 0 1-.556-2.287 6.184 6.184 0 0 1 .775-3.261 5.706 5.706 0 0 1 2.049-2.009 8.867 8.867 0 0 1 2.861-1.033 17.474 17.474 0 0 1 3.259-.3 16.145 16.145 0 0 1 3.243.32 8.6 8.6 0 0 1 2.8 1.071 6.448 6.448 0 0 1 2.044 2.007 6.742 6.742 0 0 1 .976 3.161h-5.376a2.464 2.464 0 0 0-1.232-2.2 5.673 5.673 0 0 0-2.618-.572 9.121 9.121 0 0 0-1.031.062 3.288 3.288 0 0 0-1.013.258 2.036 2.036 0 0 0-.773.574 1.514 1.514 0 0 0-.32 1.016 1.553 1.553 0 0 0 .556 1.232 4.406 4.406 0 0 0 1.451.777 18.056 18.056 0 0 0 2.044.534q1.152.239 2.343.517a23.642 23.642 0 0 1 2.4.675 7.946 7.946 0 0 1 2.086 1.053 5.065 5.065 0 0 1 1.468 1.632 4.781 4.781 0 0 1 .556 2.4 6.236 6.236 0 0 1-2.941 5.608 8.731 8.731 0 0 1-3 1.17 17.351 17.351 0 0 1-3.44.34 16.837 16.837 0 0 1-3.495-.36 9.27 9.27 0 0 1-3.04-1.19 6.832 6.832 0 0 1-2.186-2.2 6.916 6.916 0 0 1-.932-3.438h5.374a3.1 3.1 0 0 0 .377 1.565" class="cls-1" data-name="Path 299" transform="translate(-476.91 -30.175)"/>
        <path id="Rectangle_1645" d="M0 0h5.647v4.65H0z" class="cls-1" data-name="Rectangle 1645" transform="translate(533.501 217.851)"/>
        <path id="Rectangle_1646" d="M0 0h5.647v20.554H0z" class="cls-1" data-name="Rectangle 1646" transform="translate(533.501 225.695)"/>
        <path id="Path_300" d="M1147.059 261.7a9.4 9.4 0 0 1 5.482-5.61 11.781 11.781 0 0 1 4.371-.773 11.935 11.935 0 0 1 4.389.773 9.581 9.581 0 0 1 3.358 2.188 9.7 9.7 0 0 1 2.146 3.422 12.733 12.733 0 0 1 .753 4.475 12.556 12.556 0 0 1-.753 4.453 9.718 9.718 0 0 1-2.146 3.4 9.357 9.357 0 0 1-3.358 2.168 12.168 12.168 0 0 1-4.389.757 12.01 12.01 0 0 1-4.371-.757 9.4 9.4 0 0 1-3.336-2.168 9.685 9.685 0 0 1-2.146-3.4 12.45 12.45 0 0 1-.755-4.453 12.625 12.625 0 0 1 .755-4.475m5.131 6.882a6.423 6.423 0 0 0 .815 2.108 4.307 4.307 0 0 0 1.528 1.488 4.646 4.646 0 0 0 2.38.559 4.771 4.771 0 0 0 2.4-.559 4.277 4.277 0 0 0 1.547-1.488 6.461 6.461 0 0 0 .813-2.108 12.019 12.019 0 0 0 .238-2.4 12.333 12.333 0 0 0-.238-2.424 6.26 6.26 0 0 0-.813-2.106 4.532 4.532 0 0 0-1.547-1.49 4.638 4.638 0 0 0-2.4-.578 4.518 4.518 0 0 0-2.38.578 4.568 4.568 0 0 0-1.528 1.49 6.224 6.224 0 0 0-.815 2.106 12.5 12.5 0 0 0-.236 2.424 12.182 12.182 0 0 0 .236 2.4" class="cls-1" data-name="Path 300" transform="translate(-604.135 -30.186)"/>
        <path id="Path_301" d="M1274.191 255.866v2.861h.119a6.476 6.476 0 0 1 2.786-2.6 8.061 8.061 0 0 1 3.5-.812 9.61 9.61 0 0 1 3.72.616 5.488 5.488 0 0 1 2.287 1.711 6.6 6.6 0 0 1 1.175 2.663 16.6 16.6 0 0 1 .338 3.479v12.648h-5.647v-11.62a7.194 7.194 0 0 0-.8-3.8 3.087 3.087 0 0 0-2.828-1.254 3.924 3.924 0 0 0-3.345 1.373 7.6 7.6 0 0 0-1.037 4.517v10.783h-5.648v-20.565z" class="cls-1" data-name="Path 301" transform="translate(-702.535 -30.183)"/>
        <path id="Path_302" d="M969.718 412.217a5.825 5.825 0 0 1-2.605 2.409 9.5 9.5 0 0 1-7.694-.161 8.139 8.139 0 0 1-2.886-2.426 11.041 11.041 0 0 1-1.709-3.519 14.783 14.783 0 0 1-.576-4.137 13.909 13.909 0 0 1 .576-4 10.46 10.46 0 0 1 1.709-3.4 8.613 8.613 0 0 1 2.846-2.367 8.452 8.452 0 0 1 3.981-.894 8.112 8.112 0 0 1 3.482.775 6.087 6.087 0 0 1 2.6 2.292h.071v-10.35h5.645v28.405H969.8v-2.627zm-.238-10.158a5.957 5.957 0 0 0-.817-2.067 4.543 4.543 0 0 0-1.49-1.45 4.365 4.365 0 0 0-2.307-.559 4.583 4.583 0 0 0-2.344.559 4.384 4.384 0 0 0-1.532 1.47 6.545 6.545 0 0 0-.834 2.086 11.483 11.483 0 0 0-.258 2.446 10.365 10.365 0 0 0 .28 2.385 6.459 6.459 0 0 0 .892 2.126 4.948 4.948 0 0 0 1.55 1.508 4.188 4.188 0 0 0 2.247.581 4.484 4.484 0 0 0 2.327-.559 4.214 4.214 0 0 0 1.492-1.49 6.682 6.682 0 0 0 .795-2.126 12.531 12.531 0 0 0 .238-2.464 12.273 12.273 0 0 0-.238-2.446" class="cls-1" data-name="Path 302" transform="translate(-449.879 -135.499)"/>
        <path id="Path_303" d="M1079.312 427.017a6.783 6.783 0 0 1 2.225-2.1 9.733 9.733 0 0 1 3.042-1.135 17.459 17.459 0 0 1 3.4-.336 23.119 23.119 0 0 1 3.144.218 9.54 9.54 0 0 1 2.9.857 5.7 5.7 0 0 1 2.148 1.769 4.946 4.946 0 0 1 .834 3v10.7a21.087 21.087 0 0 0 .161 2.665 4.839 4.839 0 0 0 .554 1.912l-5.72-.007a8.4 8.4 0 0 1-.4-1.987 7.377 7.377 0 0 1-3.184 1.952 12.86 12.86 0 0 1-3.742.556 10.117 10.117 0 0 1-2.744-.358 6.291 6.291 0 0 1-2.228-1.113 5.189 5.189 0 0 1-1.492-1.91 6.441 6.441 0 0 1-.536-2.742 5.988 5.988 0 0 1 .616-2.881 5.155 5.155 0 0 1 1.589-1.81 7.111 7.111 0 0 1 2.228-1.013 23.623 23.623 0 0 1 2.526-.536 40.9 40.9 0 0 1 2.5-.318 15.388 15.388 0 0 0 2.188-.358 3.828 3.828 0 0 0 1.508-.7 1.528 1.528 0 0 0 .519-1.331 2.988 2.988 0 0 0-.3-1.451 2.19 2.19 0 0 0-.795-.834 3.082 3.082 0 0 0-1.155-.4 9.386 9.386 0 0 0-1.409-.1 4.309 4.309 0 0 0-2.625.709 3.172 3.172 0 0 0-1.113 2.373h-5.65a6.524 6.524 0 0 1 1-3.3m11.165 7.992a9.172 9.172 0 0 1-1.153.3q-.616.119-1.294.2c-.45.051-.9.119-1.349.2a9.725 9.725 0 0 0-1.254.318 3.642 3.642 0 0 0-1.073.536 2.547 2.547 0 0 0-.735.854 2.754 2.754 0 0 0-.278 1.311 2.663 2.663 0 0 0 .278 1.274 2.148 2.148 0 0 0 .755.815 3.186 3.186 0 0 0 1.113.417 6.921 6.921 0 0 0 1.314.119 4.976 4.976 0 0 0 2.581-.556 3.745 3.745 0 0 0 1.353-1.331 4.266 4.266 0 0 0 .536-1.57 10.81 10.81 0 0 0 .1-1.274V434.5a2.567 2.567 0 0 1-.894.5" class="cls-1" data-name="Path 303" transform="translate(-549.02 -165.22)"/>
        <path id="Path_304" d="M1201.572 401.121v3.789h-4.135v10.18a1.912 1.912 0 0 0 2.386 2.387q.477 0 .914-.04a7.965 7.965 0 0 0 .835-.121v4.378a12.471 12.471 0 0 1-1.59.163c-.583.027-1.152.044-1.711.044a16.461 16.461 0 0 1-2.484-.181 5.855 5.855 0 0 1-2.069-.7 3.678 3.678 0 0 1-1.413-1.473 5.264 5.264 0 0 1-.519-2.506V404.91h-3.418v-3.789h3.418v-6.146h5.65v6.146z" class="cls-1" data-name="Path 304" transform="translate(-637.922 -142.355)"/>
        <path id="Path_305" d="M1270.427 427.017a6.782 6.782 0 0 1 2.226-2.1 9.707 9.707 0 0 1 3.042-1.135 17.471 17.471 0 0 1 3.4-.336 23.07 23.07 0 0 1 3.142.218 9.554 9.554 0 0 1 2.9.857 5.722 5.722 0 0 1 2.148 1.769 4.947 4.947 0 0 1 .834 3v10.7a21.155 21.155 0 0 0 .161 2.665 4.879 4.879 0 0 0 .552 1.912l-5.714-.007a7.673 7.673 0 0 1-.259-.974 8.514 8.514 0 0 1-.139-1.013 7.39 7.39 0 0 1-3.184 1.952 12.868 12.868 0 0 1-3.742.556 10.115 10.115 0 0 1-2.744-.358 6.291 6.291 0 0 1-2.228-1.113 5.187 5.187 0 0 1-1.492-1.91 6.409 6.409 0 0 1-.537-2.742 5.966 5.966 0 0 1 .616-2.881 5.158 5.158 0 0 1 1.59-1.81 7.109 7.109 0 0 1 2.228-1.013 23.5 23.5 0 0 1 2.526-.536c.846-.135 1.68-.239 2.5-.318a15.406 15.406 0 0 0 2.186-.358 3.865 3.865 0 0 0 1.513-.7 1.533 1.533 0 0 0 .517-1.331 2.962 2.962 0 0 0-.3-1.451 2.16 2.16 0 0 0-.795-.834 3.054 3.054 0 0 0-1.152-.4 9.391 9.391 0 0 0-1.409-.1 4.309 4.309 0 0 0-2.625.709 3.171 3.171 0 0 0-1.113 2.373h-5.65a6.53 6.53 0 0 1 1-3.3M1281.58 435a9.261 9.261 0 0 1-1.153.3c-.411.079-.841.146-1.294.2s-.9.119-1.349.2a9.7 9.7 0 0 0-1.254.318 3.639 3.639 0 0 0-1.073.536 2.553 2.553 0 0 0-.735.854 2.755 2.755 0 0 0-.278 1.311 2.664 2.664 0 0 0 .278 1.274 2.147 2.147 0 0 0 .755.815 3.184 3.184 0 0 0 1.113.417 6.916 6.916 0 0 0 1.311.119 4.984 4.984 0 0 0 2.583-.556 3.743 3.743 0 0 0 1.353-1.331 4.271 4.271 0 0 0 .537-1.57 10.81 10.81 0 0 0 .1-1.274V434.5a2.591 2.591 0 0 1-.894.5" class="cls-1" data-name="Path 305" transform="translate(-702.52 -165.22)"/>
    </g>
</svg>
